<?xml version="1.0" standalone="no"?>
<!DOCTYPE svg PUBLIC "-//W3C//DTD SVG 20010904//EN"
 "http://www.w3.org/TR/2001/REC-SVG-20010904/DTD/svg10.dtd">
<svg version="1.0" xmlns="http://www.w3.org/2000/svg"
 width="200.000000pt" height="200.000000pt" viewBox="0 0 200.000000 200.000000"
 preserveAspectRatio="xMidYMid meet">
<metadata>
Created by potrace 1.14, written by Peter Selinger 2001-2017
</metadata>
<g transform="translate(0.000000,200.000000) scale(0.100000,-0.100000)"
fill="#000000" stroke="none">
<path d="M940 1973 c-121 -9 -335 -67 -309 -84 10 -6 3 -9 -20 -9 -49 0 -178
-81 -277 -173 -294 -275 -389 -695 -242 -1066 114 -290 359 -506 665 -588 86
-23 117 -26 253 -26 171 0 240 13 383 73 221 92 425 295 516 515 61 146 74
214 74 385 0 171 -13 239 -73 383 -64 154 -202 323 -338 416 -183 123 -423
190 -632 174z m-223 -89 c-3 -3 -12 -4 -19 -1 -8 3 -5 6 6 6 11 1 17 -2 13 -5z
m131 -53 c83 -29 98 -33 112 -35 9 -1 20 -5 25 -8 6 -3 28 -9 50 -13 42 -8
140 -54 116 -55 -8 0 -11 -3 -8 -7 4 -3 2 -12 -3 -18 -13 -16 -4 -23 92 -73
107 -55 203 -126 239 -175 46 -63 106 -194 123 -267 42 -177 2 -358 -116 -532
-43 -64 -78 -95 -170 -151 -225 -136 -522 -113 -731 57 -93 76 -180 214 -232
367 -16 46 -36 82 -56 102 -29 28 -32 36 -33 96 -1 68 8 164 17 191 3 8 11 40
17 70 7 30 21 69 31 86 11 17 19 38 19 47 0 8 13 25 30 38 16 13 30 32 30 42
0 10 11 28 25 41 13 13 22 25 19 28 -3 3 9 16 25 27 17 12 30 27 28 34 -1 7 6
11 15 11 11 -1 15 5 13 16 -3 14 5 20 33 25 24 4 31 9 22 15 -7 4 -26 4 -43
-1 -17 -5 -33 -7 -35 -4 -2 2 9 7 24 11 16 4 32 11 35 16 3 5 44 11 90 12 121
5 121 5 113 17 -8 13 30 9 84 -10z m672 -322 c0 -5 -7 -9 -15 -9 -15 0 -20 12
-9 23 8 8 24 -1 24 -14z"/>
<path d="M1008 1499 c-36 -10 -77 -41 -78 -59 0 -8 -25 -26 -57 -39 -107 -47
-192 -132 -269 -268 -21 -38 -44 -43 -45 -10 -1 16 -4 13 -11 -13 -6 -19 -8
-81 -6 -137 3 -57 3 -103 1 -103 -10 0 -25 64 -32 135 l-8 80 -2 -101 c-1 -78
4 -114 19 -159 110 -321 533 -443 782 -227 25 21 42 44 40 51 -2 7 2 11 11 9
21 -4 83 68 116 137 85 177 61 382 -62 539 -42 53 -136 120 -202 145 -59 22
-154 32 -197 20z"/>
</g>
</svg>
